<?xml version="1.0" encoding="utf-8"?>
<!-- Generator: Adobe Illustrator 19.2.0, SVG Export Plug-In . SVG Version: 6.00 Build 0)  -->
<svg version="1.1" id="Layer_1" xmlns="http://www.w3.org/2000/svg" xmlns:xlink="http://www.w3.org/1999/xlink" x="0px" y="0px"
	 viewBox="0 0 579.5 263" style="enable-background:new 0 0 579.5 263;" xml:space="preserve">
<style type="text/css">
	.st0{fill:#4C4C4C;}
</style>
<g>
	<path class="st0" d="M394.5,62.3c10.9,4.4,21.1,9.6,30.6,15.5V42.6h-30.6V62.3z M35.2,77.7c9.5-5.9,19.7-11.1,30.6-15.5V42.6H35.2
		V77.7z M35.2,197c0,19.5-15.7,35.3-35.2,35.3V263c36.3,0,65.7-29.6,65.7-66V82.6c-11.1,4.8-21.3,10.6-30.6,17.1V197z M513.7,65.7
		c-36.3,0-65.7,29.4-65.7,65.7c0,36.3,29.4,65.7,65.7,65.7h13.8v-30.6h-13.8c-19.4,0-35.2-15.7-35.2-35.2
		c0-19.4,15.7-35.2,35.2-35.2c19.4,0,35.2,15.7,35.2,35.2v65.7h30.6v-65.7C579.5,95.2,550,65.7,513.7,65.7z M305.8,65.7
		c-12.9,0-25,3.8-35.2,10.3V0H240v197.2h30.6v-65.7c0-19.4,15.7-35.2,35.2-35.2c19.4,0,35.2,15.7,35.2,35.2v65.7h30.6v-65.7
		C371.5,95.2,342.1,65.7,305.8,65.7z M394.5,197.2H425V99.7c-9.3-6.5-19.5-12.3-30.6-17.1V197.2z M151.4,65.7
		c-36.3,0-65.7,29.4-65.7,65.7c0,36.3,29.4,65.7,65.7,65.7h13.8v-30.6h-13.8c-19.4,0-35.2-15.7-35.2-35.2
		c0-19.4,15.7-35.2,35.2-35.2s35.2,15.7,35.2,35.2v65.7h30.6v-65.7C217.1,95.2,187.7,65.7,151.4,65.7z"/>
</g>
</svg>
